<?xml version="1.0"?><svg width="468" height="297" xmlns="http://www.w3.org/2000/svg" preserveAspectRatio="xMidYMid meet">
 <title>humnan body</title>
 <metadata id="metadata4">Created by potrace 1.8, written by Peter Selinger 2001-2007image/svg+xmlimage/svg+xmlimage/svg+xml</metadata>
 <g>
  <title>Layer 1</title>
  <path id="pathCorpsFemme" fill="#d5a296" stroke="#c39586" stroke-miterlimit="4" transform="translate(0 1.33333) scale(0.8 0.8)" d="m272.406006,11.5625c-8.131012,0.3859 -12.448029,3.1474 -14.875,6.2813c-2.925995,3.7796 -2.549011,9.4175 -2.125,12.3437c-0.766998,0.531898 -0.623016,-0.107399 -1.937012,0.5c-0.613983,2.981998 0.442017,6.949799 1.343994,7.7813c0.90802,0.837799 1.945007,-0.358501 2.218018,0.7812c0.27298,1.139702 0.565002,2.226501 0.843994,3.1875c0.171997,0.592499 0.393982,1.1404 0.625,1.6875c0.065979,0.182499 0.143005,0.356701 0.218994,0.5313c0.070007,0.1516 0.113007,0.320301 0.187012,0.4687c0.169983,0.341099 0.377991,0.684299 0.593994,1.0313c0.035004,0.059799 0.05899,0.128101 0.093994,0.1875c0.303986,0.5144 0.634003,0.987602 0.967987,1.4687c0.035004,0.050098 0.059021,0.1064 0.094025,0.1563c1.121979,1.912201 1.421997,3.539501 1.625,7.375c0.35199,6.648602 1.641998,7.970898 -4.187012,10.937504c-2.444,1.243599 -4.294983,1.978294 -4.937988,2.5625c-0.628021,0.570297 -2.527008,1.5737 -5.781006,2.593697c-6.643005,2.082199 -10.96701,4.196198 -12.5,5.843803c-3.765991,4.047394 -5.446106,9.613594 -6.406311,20.249695c-1.034088,12.335999 0.4375,22.520004 -0.375,23.407005c-0.443207,0.442993 -1.25528,-0.227005 -2.656281,-1.563004c-5.186005,-4.945999 -8.278625,-8.931999 -12.343719,-14.686996c-1.643097,-2.557007 -3.128906,-4.375 -5.531281,-7.250504c-0.724915,-0.8675 -0.782318,-2.207001 -1.281219,-3.25c-0.481506,-1.0065 -0.618103,-2.266701 2.3125,-8.1875c0.688812,-1.391701 1.1875,-2.8778 1.1875,-3.468697c0,-0.517105 0.523407,-1.912704 1.093719,-3.031303c1.350189,-2.648399 1.783081,-4.476402 0.281281,-4.968697c-1.263397,-0.4142 -2.875,2.522697 -2.875,4c-1.241089,1.224594 -4.245789,1.8993 -4.843781,1.656197c-0.780701,-0.138496 -1.922607,-2.3853 -2.624908,-3.1875c-0.983795,-1.123596 -2.137817,-2.260902 -2.875,-3.593697c-0.904205,-1.634903 -1.509491,-4.3619 -2.9375,-6.75c-0.660309,-1.583107 -1.415894,-4.964203 -3.031189,-4.656303c-1.294403,0.246696 -0.472015,5.085098 3.406189,14.406303c0.332092,0.798096 0.224396,1.3125 -0.218689,1.3125c-0.738708,0 -2.14032,-3.255806 -3.125,-5.25c-0.13092,-0.265007 -0.823608,-1.648102 -1.6875,-3.8125c-1.181915,-1.846603 -1.874115,-3.429405 -2.031311,-3.843803c-0.21759,-0.5737 -1.617706,-2.697701 -2.5625,-2.25c-1.101501,0.522003 -0.213104,2.207397 0.156311,3.093803c0.29538,0.738594 1.031189,2.605095 1.843689,4.968697c0.8125,2.363602 1.928986,5.102303 2.593811,6.0625c0.590881,0.960197 0.960175,2.139198 0.8125,2.656303c-0.147827,0.4431 -1.727325,-2.525604 -2.6875,-4.593803c-2.363708,-5.096603 -3.921326,-6.5718 -4.281311,-7.281197c-0.613495,-1.209106 -1.8797,-2.217606 -2.781189,-1.656303c-0.935516,0.582397 1.71579,4.929398 2.593689,6.218803c0.959503,1.409195 2.014008,4.386894 2.9375,5.75c1.625,3.6931 2.366486,4.826698 -0.218689,2.093697c-3.102325,-3.25 -7.018402,-6.234703 -7.8125,-4.968697c-0.521515,0.831093 1.438599,2.778694 2.343689,3.5625c1.994293,1.846497 4.803986,4.5625 6.281311,6.1875c1.477173,1.551094 4.522675,4.741394 6.8125,7.031197c2.289673,2.289803 4.349396,4.9347 4.718689,5.968498c0.443207,1.773003 4.981995,11.234001 14.1875,30.157005c2.592499,6.953995 7.636902,11.61499 12.843811,16.530991c2.466797,2.332001 8.220184,5.923004 9.594177,3.812012c7.697998,-11.830002 6.988007,-24.271004 7.093018,-33.343002c0.212982,-8.643005 1.832001,-15.597 2.053986,-15.375c0.222015,0.146996 -1.240997,5.104996 -0.687988,10.936996c0.554993,5.838997 2.098999,13.07 2.571991,16.093994c2.910004,13.042999 0.390015,9.908005 -6.593994,30.562012c-7.075989,20.925995 -5.325012,42.188995 -2.437012,64.125c0.457001,3.43399 3.59201,12.304993 3.751007,22.947998c0.160004,10.643005 -2.656006,21.582001 -4.251007,32.105988c-0.649994,4.287018 0.141998,17.285004 1.843018,29.102997c1.031982,7.165009 1.001984,8.641022 -0.156006,17.656006c-1.205017,9.377014 -1.203003,12.537994 -3,15c-0.904999,0.985992 -2.559998,3.544006 -3.561981,4.625c-0.665009,0.295013 -2.367523,2.559021 -1.219025,3c1.207001,0.463013 2.184998,-2.105988 2.937012,-1.718994c-0.387024,1.188995 -1.917023,2.614014 -0.968018,3.843994c0.569,0.739014 1.203003,0.059998 1.812012,-1.562988c0.337982,-0.899017 1.516998,-2.031006 1.812988,-2.031006c0.295013,0 -0.389984,1.438995 -0.906982,2.75c-0.516998,1.312012 -1.053009,2.282013 0.593994,2.531006c0.779999,0.117981 1.596985,-2.531006 2.188019,-3.343018c0.959991,-1.255981 1.451965,-0.483002 0.655975,0.625c-0.692993,1.70401 -2.207001,3.195007 0.125,4.281006c1.108002,0 1.406006,-1.122009 2.219025,-3.781006c0,0 0.187988,-1.553986 1.375,-2.343994c1.02298,0.994019 -1.088013,2.188019 -0.594025,3.687012c0.945007,2.869995 0.985016,3.367004 2.812012,2.593994c1.316986,-0.557007 1.806976,-2.609009 1.531982,-5.187012c1.291016,-2.404999 0.338013,-3.880981 0.375,-10.343994c0.080017,-3.015991 1.753021,-4.742981 2.187012,-8.625c0.415985,-3.721008 -1.075989,-9.835999 -0.468994,-12.5c1.867981,-8.194 3.622986,-14.910004 4.187988,-15.812988c0.912994,-1.459991 1.923004,-9.002991 2.593994,-18.531006c0.731995,-10.415009 2.403015,-18.648987 5.531006,-26.468994c1.007996,-2.521011 1.667999,-5.919006 1.875,-7.531006c0.492004,-3.841003 1.027008,-11.951996 1.281006,-14.375c0.645996,-6.154999 4.117981,-15.216995 4.406006,-23.625c0.215973,-6.285995 0.983002,-10.093994 -0.75,-14.625c3.406982,0.235001 3.632996,0.151001 6.125,-0.311996c-0.957001,4.037003 0.902985,10.843002 1,17.030991c0.087982,5.612 2.367981,13.149002 2.687988,15.594009c0.898987,6.873993 2.678009,12.945999 3.468994,18.218002c0.975006,6.503998 0.674011,11.757996 1.281006,16.375c0.19101,1.458984 1.402985,11.437988 1.625,17.125c0.221008,5.687988 0.79599,13.152008 1.375,16.625c3.113983,18.686005 3.192993,23.048981 1.125,30.656982c-0.812988,3.028015 -1.585999,4.434021 -1.468994,6.343018c0.091003,1.488007 1.178986,2.136993 2.656006,3.687988c2.880981,2.95401 5.394989,3.761017 5.468994,6.125c0,3.471008 0.397003,6.739014 2.062988,8.25c1.138,1.032013 3.002014,3.848999 4.781006,3.031006c1.880005,-0.864014 0.545013,-3.514008 -0.562988,-5.656006c-0.665009,-1.255981 -0.275024,-1.843994 0.093994,-1.843994c0.294983,0 0.699005,2.243988 1.436981,4.312988c0.296021,1.957001 0.677002,2.979004 1.782013,2.593018c1.164001,-0.407013 0.587006,-1.416016 0.062012,-2.406006c-0.184021,-0.627991 -0.274017,-2.343994 -0.156006,-3.281006c1.118988,0.953003 1.001007,1.585999 1.343994,2.468994c0.411011,1.600006 -0.63501,3.605011 1.406006,2.968018c1.660004,-0.518005 0.701996,-1.662018 0.531006,-3.218018c-0.161011,-1.471985 -1.22702,-2.078979 -0.969025,-2.718994c0.694,0.317017 1.469025,2.25 1.469025,2.25c0.590973,1.32901 1.066986,2.931 1.843994,2.125c0.567993,-0.589996 0.707001,-1.678009 0,-2.218994c-0.591003,-0.739014 -1.02002,-1.908997 -1.093994,-2.5c0,-0.591003 0.405975,0.243988 1.218994,1.5c0.794006,1.841003 1.054993,3.049011 2.343994,2.406006c1.246002,-0.621002 -0.429016,-2.583008 -1.562988,-4.25c-1.28302,-1.886993 -2.159027,-4.432007 -3.969025,-6.906006c-6.425995,-8.567993 -6.905975,-8.483002 -6.905975,-12.25c0,-2.141998 0.533997,-7.187012 1.125,-11.25c0.590973,-3.989014 1.093994,-9.516998 1.093994,-12.25c0,-2.954987 0.901978,-11.27301 1.061981,-12.656006c0.365997,-3.14798 1.559998,-16.070984 0.125,-24.781006c-1.666992,-10.125 -0.908997,-20.626984 4.344025,-54.749985c1.752991,-14.873001 4.230988,-36.511002 -2.125,-52.875c-6.540009,-16.839996 -6.281006,-26.029007 -4.524017,-36.499992c1.743011,-10.389 0.472015,-18.602013 -1.174011,-24.473511c0.866028,3.430496 3.346008,10.7005 3.486023,12.4105c-0.792023,8.288002 4.294006,14.524002 6.556,21.75c0.703003,6.061005 1.622986,11.199005 2.125,14.813004c0.901978,6.498001 7.934998,25.113998 10.156006,30.030991c2.776001,6.145004 3.684998,14.167999 3.062988,16.969009c-0.679016,3.050995 -3.622009,4.705994 -4.25,8.155991c-0.919006,5.041 -2.846008,7.146011 -1.032013,8.125c2.324005,1.254013 2.64502,-4.426987 5.657013,-7c3.688995,-3.153 3.584991,-0.917999 4.25,5.656006c0.591003,5.613998 1.007996,10.069 1.967987,10.063004c1.817017,-0.013 1.495026,-3.753006 1.125,-8.406998c-0.011993,-1.98201 -0.444977,-3.819 0.625,-4.468002c1.194,0.949997 0.449005,2.962997 0.782013,6.655991c0.442993,4.57901 0.170013,7.969009 1.5,7.969009c1.402985,0 1.098999,-3.123001 0.656006,-8.219009c-0.001007,-2.069992 -0.606995,-5.095001 0.281006,-6.093994c1.181,0.436996 1.196991,3.481003 1.25,6c0.076996,3.667007 0.730988,6.229004 1.812988,6.25c2.028992,0.039001 0.631989,-2.712006 0.25,-7.561996c-0.158997,-2.013 -0.852997,-3.969986 0.625,-4.781998c1.674011,1.723999 0.899994,10.822998 2.217987,10.281998c1.180023,-0.485001 0.598022,-3.945007 0.313019,-8.406998c-0.386993,-6.070007 -0.917999,-6.115005 -1.781006,-8.906006c-0.472992,-1.526993 -0.980011,-4.557007 -2.032013,-6.561996c-0.708984,-1.352997 -2.417999,-3.455002 -3.625,-5.875c-1.362976,-2.735001 -5.161987,-11.67601 -5.436981,-15.313004c-0.873016,-11.531006 -3.679016,-23.199005 -3.906006,-26.343994c-0.200012,-2.766006 -1.979004,-8.939011 -2.468994,-12.437012c-0.235992,-1.68399 -1.266998,-7.255997 -1.563019,-9.249985c-0.294983,-1.99501 -1.339996,-7.44101 -2.375,-12.094009c-1.033997,-4.653 -2.129974,-10.202003 -2.5,-12.343689c-0.604004,-3.434113 -1.405975,-6.766113 -2.155975,-10.125c-0.985016,-3.323914 -2.400024,-8.72821 -5.156006,-11.4375c-1.60202,-1.574814 -3.242004,-2.33271 -5.75,-2.656311c-4.362,-0.56279 -8.686005,-3.042702 -10.968994,-4.3125c-4.575012,-2.355591 -9.764008,-5.610603 -9.375,-11.2812c0.572998,-3.797291 1.334991,-6.2952 2.25,-8.3125c0.940979,-0.925591 1.826996,-2.0205 2.343994,-3.375c0.263,-0.688599 0.54599,-1.735699 0.811981,-2.9688c0.266998,-1.233101 0.758026,-3.2561 1.719025,-2.9062c1.307983,0.476009 1.151001,-4.828091 1.280975,-5.9375c0.131012,-1.109501 -1.770996,-0.996399 -1.780975,-1.4375c-0.051025,-2.226299 1.130981,-12.1668 -2.375,-15.1875c-1.888,-1.627501 -6.220001,-6.049299 -14.5,-5.6563l0,0z"/>
  <path id="pathOeil1Homme-9-5" fill="#ffffff" fill-rule="evenodd" marker-start="none" stroke-width="0.32" d="m310.73999,22.9254c0.402008,-0.780199 2.605011,-1.5016 3.522003,-1.4503c1.985992,0.1112 2.33902,0.104101 3.580017,2.146601c-1.479004,0.4062 -1.826019,0.581999 -3.34201,0.5571c-1.528992,-0.025101 -3.036011,-0.528801 -3.76001,-1.253401z"/>
  <path id="pathOeil2Homme-8-1" fill="#ffffff" fill-rule="evenodd" marker-start="none" stroke-width="0.32" d="m322.52301,23.5361c0.402985,-0.7803 2.332977,-1.7691 3.250977,-1.7458c1.604004,0.0408 2.513,0.189499 3.620026,1.5319c-0.922028,0.615 -1.989014,1.1882 -3.505005,1.163399c-1.529022,-0.025099 -2.641998,-0.225 -3.365997,-0.949499z"/>
 </g>
</svg>